# xmcd
#
# Track frame offsets: 
#        150
#        27550
#        43985
#
# Disc length: 904 seconds
#
# Revision: 0
# Processed by: cddbd v1.5.2PL0 Copyright (c) Steve Scherf et al.
# Submitted via: ExactAudioCopyFreeDBPlugin 1.0
#
DISCID=25038603
DTITLE=Van Morrison - Philosophers Stone EP
DYEAR=1998
DGENRE=Blues
TTITLE0=Philosophers Stone
TTITLE1=These Dreams Of You
TTITLE2=Raincheck
EXTD=
EXTT0=
EXTT1=
EXTT2=
PLAYORDER=
